<svg width="46" height="43" viewBox="0 0 46 43" fill="none" xmlns="http://www.w3.org/2000/svg">
<path d="M10.4149 19.1399C11.2679 19.1399 11.9594 18.4431 11.9594 17.5837C11.9594 16.7242 11.2679 16.0275 10.4149 16.0275C9.56196 16.0275 8.87048 16.7242 8.87048 17.5837C8.87048 18.4431 9.56196 19.1399 10.4149 19.1399Z" fill="black"/>
<path d="M25.7052 19.1917C26.615 19.1917 27.3526 18.4485 27.3526 17.5318C27.3526 16.615 26.615 15.8718 25.7052 15.8718C24.7953 15.8718 24.0577 16.615 24.0577 17.5318C24.0577 18.4485 24.7953 19.1917 25.7052 19.1917Z" fill="black"/>
<path d="M39.6053 0.465454H6.60531C3.25898 0.465454 0.581909 3.16286 0.581909 6.53462V26.2464C0.581909 29.6182 3.25898 32.3156 6.60531 32.3156H18.2403L22.2044 41.7047C22.2044 41.7047 22.4618 42.5346 23.131 42.5346C23.8003 42.5346 24.0577 41.7047 24.0577 41.7047L28.0218 32.3156H39.5538C42.9002 32.3156 45.5772 29.6182 45.5772 26.2464V6.53462C45.6287 3.21473 42.9002 0.465454 39.6053 0.465454ZM14.7395 17.8948C14.7395 21.4741 11.0328 21.5778 11.0328 21.5778C9.59127 21.5778 8.81904 20.6441 8.81904 20.6441V21.3185H6.14197V10.1139C6.29642 10.1657 8.81904 10.1139 8.81904 10.1139V14.4193C9.43682 13.33 11.2902 13.33 11.2902 13.33C15.2028 13.6931 14.7395 17.8948 14.7395 17.8948ZM19.4758 13.6412V21.3185H16.8502V13.745C16.8502 12.7075 15.5632 12.4482 15.5632 12.4482V9.75076C19.7847 9.90638 19.4758 13.6412 19.4758 13.6412ZM25.7052 21.6297C23.2855 21.6297 21.2777 19.8142 21.2777 17.5317C21.2777 15.2493 23.234 13.4338 25.7052 13.4338C28.1763 13.4338 30.1326 15.2493 30.1326 17.5317C30.1326 19.8142 28.1763 21.6297 25.7052 21.6297ZM40.1716 21.6297C40.1716 21.6297 40.2231 25.5202 36.259 25.5202H35.0749V22.9784H35.7956C35.7956 22.9784 37.4431 23.134 37.4431 20.5923C37.4431 20.5923 37.1342 21.6297 34.8175 21.6297C34.8175 21.6297 31.5226 21.3704 31.5226 18.1542V16.9093C31.5226 16.9093 31.5741 13.5894 35.1779 13.2781C35.1779 13.2781 36.6194 13.1225 37.4946 14.3156V13.4856H40.1716V21.6297Z" fill="black"/>
<path d="M35.95 19.1917C36.8599 19.1917 37.5975 18.4485 37.5975 17.5318C37.5975 16.615 36.8599 15.8718 35.95 15.8718C35.0402 15.8718 34.3026 16.615 34.3026 17.5318C34.3026 18.4485 35.0402 19.1917 35.95 19.1917Z" fill="black"/>
</svg>
