<svg width="43" height="43" viewBox="0 0 43 43" fill="none" xmlns="http://www.w3.org/2000/svg">
<g clip-path="url(#clip0_453_19)">
<path d="M30.4845 0.885498H13.056C6.48378 0.885498 1.15576 6.21322 1.15576 12.7857V30.214C1.15576 36.7868 6.48378 42.1145 13.056 42.1145H30.4845C37.0571 42.1145 42.3851 36.7868 42.3851 30.214V12.7857C42.3848 6.21322 37.0568 0.885498 30.4845 0.885498ZM38.5876 30.5208C38.5876 34.8831 35.0512 38.4201 30.688 38.4201H12.852C8.48934 38.4201 4.9529 34.8834 4.9529 30.5208V12.6841C4.9529 8.32154 8.48934 4.78481 12.852 4.78481H30.6883C35.0512 4.78481 38.5879 8.32154 38.5879 12.6841L38.5876 30.5208Z" fill="black"/>
<path d="M21.77 10.9048C15.862 10.9048 11.0726 15.6942 11.0726 21.6023C11.0726 27.5101 15.862 32.3001 21.77 32.3001C27.6781 32.3001 32.4678 27.5104 32.4678 21.6023C32.4678 15.6942 27.6781 10.9048 21.77 10.9048ZM21.77 28.5368C17.9402 28.5368 14.8358 25.4321 14.8358 21.6023C14.8358 17.7724 17.9405 14.6681 21.77 14.6681C25.5999 14.6681 28.7048 17.7727 28.7048 21.6023C28.7048 25.4321 25.5999 28.5368 21.77 28.5368Z" fill="black"/>
<path d="M32.8243 8.00598C31.4479 8.00598 30.3324 9.12174 30.3324 10.4982C30.3324 11.8743 31.4479 12.9901 32.8243 12.9901C34.2008 12.9901 35.3162 11.8743 35.3162 10.4982C35.3162 9.12174 34.2008 8.00598 32.8243 8.00598Z" fill="black"/>
</g>
<defs>
<clipPath id="clip0_453_19">
<rect width="42" height="42" fill="white" transform="translate(0.577881 0.5)"/>
</clipPath>
</defs>
</svg>
